<?xml version="1.0" encoding="UTF-8"?>
<svg width="32px" height="32px" viewBox="0 0 32 32" version="1.1" xmlns="http://www.w3.org/2000/svg" xmlns:xlink="http://www.w3.org/1999/xlink">
    <!-- Generator: Sketch 47.1 (45422) - http://www.bohemiancoding.com/sketch -->
    <title>sign-stop</title>
    <desc>Created with Sketch.</desc>
    <defs></defs>
    <g id="Design" stroke="none" stroke-width="1" fill="none" fill-rule="evenodd">
        <g id="5.0.1---Chapter-2-(Body)" transform="translate(-415.000000, -6384.000000)">
            <g id="Group-16" transform="translate(339.000000, 5862.000000)">
                <g id="sign-stop" transform="translate(76.000000, 522.000000)">
                    <g id="Outline_Icons_1_" stroke-width="1.33333333" stroke="#FFFFFF" stroke-linejoin="round">
                        <g id="Outline_Icons">
                            <g id="Group">
                                <path d="M22.3746667,20.3853333 C22.3746667,19.5773333 22.572,18.7813333 22.9533333,18.068 L24.904,14.4053333 C25.3,13.764 25.0986667,12.9226667 24.4546667,12.528 C23.8133333,12.132 22.972,12.3333333 22.576,12.9773333 L20.0986667,16.8786667 L21.5706667,8.84666667 C21.7293333,8.10933333 21.2613333,7.38266667 20.5226667,7.22266667 C19.784,7.06533333 19.0586667,7.53333333 18.9,8.27066667 L17.3666667,15.0573333 L17.3666667,6.40533333 C17.3666667,5.652 16.7546667,5.04 16.0013333,5.04 C15.2466667,5.04 14.636,5.652 14.636,6.40533333 L14.636,15.0613333 L13.1026667,7.94 C12.9413333,7.20133333 12.2146667,6.73333333 11.476,6.892 C10.74,7.05066667 10.2706667,7.77733333 10.4293333,8.51466667 L11.9013333,18.7 L9.18133333,16.3253333 C8.624,15.816 7.76,15.8546667 7.252,16.412 C6.74133333,16.968 6.78,17.832 7.336,18.3413333 L12.124,24.716 C12.8973333,25.524 13.968,25.984 15.0893333,25.984 C15.672,25.984 17.632,25.984 18.276,25.984 C21.516,25.984 22.3746667,23.4573333 22.3746667,20.3853333 Z" id="Shape"></path>
                                <polygon id="Shape" stroke-linecap="round" points="9.65866667 31.3333333 0.666666667 22.3786667 0.666666667 9.77466667 9.65866667 0.666666667 22.264 0.666666667 31.3333333 9.77466667 31.3333333 22.3786667 22.264 31.3333333"></polygon>
                            </g>
                        </g>
                    </g>
                    <g id="Invisible_Shape">
                        <rect id="Rectangle-path" x="0" y="0" width="32" height="32"></rect>
                    </g>
                </g>
            </g>
        </g>
    </g>
</svg>