<?xml version="1.0" encoding="UTF-8"?>
<svg width="32px" height="32px" viewBox="0 0 32 32" version="1.1" xmlns="http://www.w3.org/2000/svg" xmlns:xlink="http://www.w3.org/1999/xlink">
    <!-- Generator: Sketch 47.1 (45422) - http://www.bohemiancoding.com/sketch -->
    <title>heart-setting</title>
    <desc>Created with Sketch.</desc>
    <defs></defs>
    <g id="Design" stroke="none" stroke-width="1" fill="none" fill-rule="evenodd">
        <g id="5.0.1---Chapter-2-(Body)" transform="translate(-415.000000, -6208.000000)">
            <g id="Group-16" transform="translate(339.000000, 5862.000000)">
                <g id="heart-setting" transform="translate(76.000000, 346.000000)">
                    <g id="Outline_Icons_1_" stroke-width="1.33333333" stroke="#FFFFFF" stroke-linejoin="round">
                        <g id="Outline_Icons">
                            <g id="Group">
                                <g transform="translate(14.666667, 14.666667)">
                                    <path d="M15.1666667,6.55733333 L16.596,5.732 L14.596,2.268 L13.1546667,3.09866667 C12.448,2.452 11.6026667,1.968 10.6666667,1.672 L10.6666667,0 L6.66666667,0 L6.66666667,1.672 C5.73066667,1.96933333 4.88533333,2.452 4.17866667,3.09866667 L2.73733333,2.268 L0.737333333,5.732 L2.16666667,6.55733333 C1.94533333,7.55466667 1.944,8.44266667 2.16666667,9.444 L0.74,10.268 L2.74,13.732 L4.17866667,12.9013333 C4.88533333,13.548 5.73066667,14.032 6.66666667,14.328 L6.66666667,16 L10.6666667,16 L10.6666667,14.328 C11.6026667,14.0306667 12.448,13.548 13.1546667,12.9013333 L14.5933333,13.732 L16.5933333,10.268 L15.1666667,9.444 C15.3893333,8.44266667 15.388,7.55466667 15.1666667,6.55733333 Z" id="Shape"></path>
                                    <circle id="Oval" cx="8.66666667" cy="8" r="2.66666667"></circle>
                                </g>
                                <path d="M27.748,13.2426667 C28.3106667,11.8053333 28.6413333,10.3466667 28.6413333,8.90666667 C28.6413333,-0.449333333 16.0946667,-2.27333333 14.6546667,7.08266667 C13.2146667,-2.27333333 0.666666667,-1.16933333 0.666666667,8.90666667 C0.666666667,17.6733333 11.256,25.9173333 14.008,27.9106667" id="Shape" stroke-linecap="round"></path>
                            </g>
                        </g>
                    </g>
                    <g id="Invisible_Shape">
                        <rect id="Rectangle-path" x="0" y="0" width="32" height="32"></rect>
                    </g>
                </g>
            </g>
        </g>
    </g>
</svg>