<?xml version="1.0" encoding="UTF-8"?>
<svg width="18px" height="18px" viewBox="0 0 18 18" version="1.1" xmlns="http://www.w3.org/2000/svg" xmlns:xlink="http://www.w3.org/1999/xlink">
    <!-- Generator: Sketch 47.1 (45422) - http://www.bohemiancoding.com/sketch -->
    <title>instagram</title>
    <desc>Created with Sketch.</desc>
    <defs></defs>
    <g id="Design" stroke="none" stroke-width="1" fill="none" fill-rule="evenodd">
        <g id="Social-Button-(active)" transform="translate(-110.000000, -31.000000)" fill-rule="nonzero" fill="#FFFFFF">
            <g id="Group-2" transform="translate(19.000000, 20.000000)">
                <g id="Group" transform="translate(16.000000, 8.000000)">
                    <g id="Group-5" transform="translate(0.000000, 3.000000)">
                        <g id="instagram" transform="translate(75.000000, 0.000000)">
                            <path d="M9.072,4.48235294 C6.552,4.48235294 4.464,6.49411765 4.464,9 C4.464,11.5058824 6.516,13.5176471 9.072,13.5176471 C11.628,13.5176471 13.68,11.4705882 13.68,9 C13.68,6.52941176 11.592,4.48235294 9.072,4.48235294 Z M9.072,11.8941176 C7.452,11.8941176 6.12,10.5882353 6.12,9 C6.12,7.41176471 7.452,6.10588235 9.072,6.10588235 C10.692,6.10588235 12.024,7.41176471 12.024,9 C12.024,10.5882353 10.692,11.8941176 9.072,11.8941176 Z" id="Shape"></path>
                            <ellipse id="Oval" cx="13.86" cy="4.37647059" rx="1.044" ry="1.02352941"></ellipse>
                            <path d="M16.56,1.72941176 C15.624,0.776470588 14.292,0.282352941 12.78,0.282352941 L5.364,0.282352941 C2.232,0.282352941 0.144,2.32941176 0.144,5.4 L0.144,12.6352941 C0.144,14.1529412 0.648,15.4588235 1.656,16.4117647 C2.628,17.3294118 3.924,17.7882353 5.4,17.7882353 L12.744,17.7882353 C14.292,17.7882353 15.588,17.2941176 16.524,16.4117647 C17.496,15.4941176 18,14.1882353 18,12.6705882 L18,5.4 C18,3.91764706 17.496,2.64705882 16.56,1.72941176 Z M16.344,12.6705882 C16.344,13.7647059 16.02,14.6470588 15.372,15.2470588 C14.724,15.8470588 13.824,16.1647059 12.744,16.1647059 L5.4,16.1647059 C4.32,16.1647059 3.42,15.8470588 2.772,15.2470588 C2.124,14.6117647 1.8,13.7294118 1.8,12.6352941 L1.8,5.4 C1.8,4.34117647 2.124,3.45882353 2.772,2.82352941 C3.384,2.22352941 4.32,1.90588235 5.4,1.90588235 L12.816,1.90588235 C13.896,1.90588235 14.796,2.22352941 15.444,2.85882353 C16.056,3.49411765 16.416,4.37647059 16.416,5.4 L16.416,12.6705882 L16.344,12.6705882 Z" id="Shape"></path>
                        </g>
                    </g>
                </g>
            </g>
        </g>
    </g>
</svg>