<?xml version="1.0" encoding="UTF-8"?>
<svg width="21px" height="32px" viewBox="0 0 21 32" version="1.1" xmlns="http://www.w3.org/2000/svg" xmlns:xlink="http://www.w3.org/1999/xlink">
    <!-- Generator: Sketch 47.1 (45422) - http://www.bohemiancoding.com/sketch -->
    <title>parking-booth</title>
    <desc>Created with Sketch.</desc>
    <defs></defs>
    <g id="Design" stroke="none" stroke-width="1" fill="none" fill-rule="evenodd">
        <g id="5.0.1---Chapter-2-(Body)" transform="translate(-420.000000, -6032.000000)">
            <g id="Group-16" transform="translate(339.000000, 5862.000000)">
                <g id="parking-booth" transform="translate(76.000000, 170.000000)">
                    <g id="Outline_Icons" transform="translate(5.333333, 0.000000)" stroke-linecap="round" stroke-width="1.33333333" stroke="#FFFFFF" stroke-linejoin="round">
                        <g id="Group">
                            <path d="M10,0.666666667 C4.84533333,0.666666667 0.666666667,4.84666667 0.666666667,10 L3.33333333,26 L16.6666667,26 L19.3333333,10 C19.3333333,4.84666667 15.1546667,0.666666667 10,0.666666667 Z" id="Shape"></path>
                            <path d="M10,26 L10,31.3333333" id="Shape"></path>
                            <path d="M15.3333333,10 C15.3333333,7.056 12.9453333,4.66666667 10,4.66666667 C7.05466667,4.66666667 4.66666667,7.056 4.66666667,10 L15.3333333,10 Z" id="Shape"></path>
                            <polyline id="Shape" points="4.66666667 14 4.66666667 12.6666667 15.3333333 12.6666667 15.3333333 14"></polyline>
                            <circle id="Oval" cx="10" cy="20.6666667" r="2"></circle>
                            <path d="M10,10 L11.8853333,8.11466667" id="Shape"></path>
                        </g>
                    </g>
                    <g id="Invisibla_Shape">
                        <rect id="Rectangle-path" x="0" y="0" width="32" height="32"></rect>
                    </g>
                </g>
            </g>
        </g>
    </g>
</svg>