<?xml version="1.0" encoding="UTF-8"?>
<svg width="14px" height="16px" viewBox="0 0 14 16" version="1.1" xmlns="http://www.w3.org/2000/svg" xmlns:xlink="http://www.w3.org/1999/xlink">
    <!-- Generator: Sketch 47.1 (45422) - http://www.bohemiancoding.com/sketch -->
    <title>ic-share-24px</title>
    <desc>Created with Sketch.</desc>
    <defs></defs>
    <g id="Design" stroke="none" stroke-width="1" fill="none" fill-rule="evenodd">
        <g id="3.0.0---Home-(Chapter-1-Tab)" transform="translate(-1492.000000, -54.000000)">
            <g id="Top-Nav" transform="translate(81.000000, 42.000000)">
                <g id="Icon-Share" transform="translate(1399.000000, 0.000000)">
                    <g id="ic-share-24px" transform="translate(7.000000, 8.000000)">
                        <polygon id="Shape" points="0 0 24 0 24 24 0 24"></polygon>
                        <path d="M16.6641565,14.9487549 C16.0731725,14.9487549 15.5443974,15.182038 15.14004,15.5475149 L9.59567764,12.3204316 C9.63455816,12.1415812 9.66566258,11.9627308 9.66566258,11.7761043 C9.66566258,11.5894778 9.63455816,11.4106274 9.59567764,11.231777 L15.0778312,8.03579813 C15.4977408,8.42460335 16.0498442,8.66566258 16.6641565,8.66566258 C17.9549898,8.66566258 18.9969877,7.62366461 18.9969877,6.33283129 C18.9969877,5.04199798 17.9549898,4 16.6641565,4 C15.3733231,4 14.3313252,5.04199798 14.3313252,6.33283129 C14.3313252,6.51945779 14.3624296,6.69830819 14.4013101,6.87715859 L8.91915657,10.0731375 C8.49924694,9.68433225 7.94714353,9.44327301 7.33283129,9.44327301 C6.04199798,9.44327301 5,10.485271 5,11.7761043 C5,13.0669376 6.04199798,14.1089356 7.33283129,14.1089356 C7.94714353,14.1089356 8.49924694,13.8678764 8.91915657,13.4790711 L14.4557428,16.7139305 C14.4168623,16.8772287 14.393534,17.048303 14.393534,17.2193773 C14.393534,18.4713301 15.4122037,19.4899998 16.6641565,19.4899998 C17.9161092,19.4899998 18.9347789,18.4713301 18.9347789,17.2193773 C18.9347789,15.9674245 17.9161092,14.9487549 16.6641565,14.9487549 Z" id="Shape" fill="#FFFFFF" fill-rule="nonzero"></path>
                    </g>
                </g>
            </g>
        </g>
    </g>
</svg>