<?xml version="1.0" encoding="UTF-8"?>
<svg width="18px" height="14px" viewBox="0 0 18 14" version="1.1" xmlns="http://www.w3.org/2000/svg" xmlns:xlink="http://www.w3.org/1999/xlink">
    <!-- Generator: Sketch 47.1 (45422) - http://www.bohemiancoding.com/sketch -->
    <title>twitter</title>
    <desc>Created with Sketch.</desc>
    <defs></defs>
    <g id="Design" stroke="none" stroke-width="1" fill="none" fill-rule="evenodd">
        <g id="Navigation-Menu-(Dropdown-open)" transform="translate(-114.000000, -945.000000)" fill-rule="nonzero" fill="#FFFFFF">
            <g id="Group-5" transform="translate(81.000000, 943.000000)">
                <g id="twitter" transform="translate(33.000000, 2.000000)">
                    <path d="M17.676,1.89495122 C17.0366471,2.16972683 16.3490471,2.35514146 15.6271412,2.43832195 C16.3638706,2.01149268 16.9292824,1.33522439 17.1957176,0.528926829 C16.5063882,0.924580488 15.7432941,1.21185366 14.9305412,1.36674146 C14.28,0.696004878 13.3528235,0.27682439 12.3269294,0.27682439 C10.3569529,0.27682439 8.75978824,1.82208293 8.75978824,3.72799512 C8.75978824,3.99843415 8.79130588,4.26170244 8.85215294,4.51428293 C5.88748235,4.37056098 3.25884706,2.99671707 1.49950588,0.908565854 C1.19255294,1.41809756 1.01661176,2.0108439 1.01661176,2.64357561 C1.01661176,3.84084878 1.64632941,4.89709756 2.60347059,5.51617073 C2.01889412,5.49800488 1.46862353,5.34294634 0.987811765,5.08432195 C0.987494118,5.09866341 0.987494118,5.11317561 0.987494118,5.12802927 C0.987494118,6.79983415 2.21710588,8.19467805 3.84910588,8.51196585 C3.54974118,8.59067317 3.23456471,8.63301463 2.90918824,8.63301463 C2.67910588,8.63301463 2.45576471,8.61150244 2.23792941,8.57100488 C2.69205882,9.94201463 4.00937647,10.9399073 5.57004706,10.9677366 C4.34922353,11.8934439 2.81128235,12.4451463 1.13982353,12.4451463 C0.852035294,12.4451463 0.5682,12.4286195 0.289023529,12.3969659 C1.86794118,13.3763171 3.74276471,13.9475512 5.75717647,13.9475512 C12.3186353,13.9475512 15.9063176,8.68870732 15.9063176,4.12812195 C15.9063176,3.97873171 15.9032118,3.8295122 15.8963294,3.68162439 C16.5930706,3.19510732 17.1981176,2.58723415 17.676,1.89495122 Z" id="Shape"></path>
                </g>
            </g>
        </g>
    </g>
</svg>