<?xml version="1.0" encoding="UTF-8"?>
<svg width="338px" height="64px" viewBox="0 0 338 64" version="1.1" xmlns="http://www.w3.org/2000/svg" xmlns:xlink="http://www.w3.org/1999/xlink">
    <!-- Generator: Sketch 47.1 (45422) - http://www.bohemiancoding.com/sketch -->
    <title>Page 1</title>
    <desc>Created with Sketch.</desc>
    <defs></defs>
    <g id="Design" stroke="none" stroke-width="1" fill="none" fill-rule="evenodd">
        <g id="6.0.1---Chapter-3-(Body)" transform="translate(-203.000000, -5480.000000)" fill="#B97D2C">
            <g id="Group" transform="translate(203.000000, 5480.000000)">
                <g id="Page-1">
                    <path d="M83.4246067,51.8069999 C82.9502206,52.0425769 81.9018056,52.2926829 80.5739578,52.2926829 C77.0680495,52.2926829 74.9376443,50.1745655 74.9376443,46.9563969 C74.9376443,43.4694421 77.4612051,41.3658537 80.8371446,41.3658537 C82.1639094,41.3658537 83.1137646,41.6315264 83.5242494,41.8359699 L83.0812724,43.3760415 C82.558148,43.1560313 81.8368212,42.9681924 80.917292,42.9681924 C78.6731641,42.9681924 77.0518034,44.3173118 77.0518034,46.8609207 C77.0518034,49.1845194 78.4760448,50.6758152 80.9010459,50.6758152 C81.7220155,50.6758152 82.5733111,50.5191098 83.0986016,50.2835328 L83.4246067,51.8069999 Z" id="Fill-1"></path>
                    <polygon id="Fill-2" points="87.0747037 42.1463415 87.0747037 46.5237169 91.683871 46.5237169 91.683871 42.1463415 93.6720554 42.1463415 93.6720554 53.0731707 91.683871 53.0731707 91.683871 48.2585935 87.0747037 48.2585935 87.0747037 53.0731707 85.0854503 53.0731707 85.0854503 42.1463415"></polygon>
                    <polygon id="Fill-3" points="96.0138568 53.0731707 97.5750577 53.0731707 97.5750577 42.1463415 96.0138568 42.1463415"></polygon>
                    <path d="M99.9168591,53.0731707 L99.9168591,42.1463415 L102.167933,42.1463415 L104.965303,46.8323299 C105.68909,48.0474936 106.31616,49.3119497 106.814627,50.4960378 L106.847575,50.4960378 C106.718972,49.0354839 106.671145,47.6263655 106.671145,45.9568548 L106.671145,42.1463415 L108.503464,42.1463415 L108.503464,53.0731707 L106.461767,53.0731707 L103.631451,48.2585935 C102.939548,47.075577 102.216824,45.7296814 101.685409,44.4984441 L101.637581,44.5134461 C101.718356,45.9236361 101.733236,47.3659733 101.733236,49.1662158 L101.733236,53.0731707 L99.9168591,53.0731707 Z" id="Fill-4"></path>
                    <path d="M116.046247,48.4696934 L115.207424,45.7779022 C115.000333,45.1124554 114.826711,44.3677122 114.667733,43.7344126 L114.637401,43.7344126 C114.479468,44.3677122 114.320489,45.128529 114.131179,45.7779022 L113.308044,48.4696934 L116.046247,48.4696934 Z M112.991132,49.9784681 L112.074912,53.0731707 L110.064665,53.0731707 L113.481666,42.1463415 L115.967804,42.1463415 L119.431871,53.0731707 L117.344226,53.0731707 L116.376756,49.9784681 L112.991132,49.9784681 Z" id="Fill-5"></path>
                    <polygon id="Fill-6" points="126.104232 42.1463415 126.104232 46.5237169 130.711183 46.5237169 130.711183 42.1463415 132.702079 42.1463415 132.702079 53.0731707 130.711183 53.0731707 130.711183 48.2585935 126.104232 48.2585935 126.104232 53.0731707 124.115473 53.0731707 124.115473 42.1463415"></polygon>
                    <polygon id="Fill-7" points="135.04388 53.0731707 136.605081 53.0731707 136.605081 42.1463415 135.04388 42.1463415"></polygon>
                    <polygon id="Fill-8" points="138.946882 49.1707317 142.849885 49.1707317 142.849885 47.6097561 138.946882 47.6097561"></polygon>
                    <polygon id="Fill-9" points="145.794877 43.8169237 142.849885 43.8169237 142.849885 42.1463415 150.655889 42.1463415 150.655889 43.8169237 147.680483 43.8169237 147.680483 53.0731707 145.794877 53.0731707"></polygon>
                    <polygon id="Fill-10" points="158.001494 48.2253748 154.104323 48.2253748 154.104323 51.4347357 158.461894 51.4347357 158.461894 53.0731707 152.21709 53.0731707 152.21709 42.1463415 158.231694 42.1463415 158.231694 43.7847765 154.104323 43.7847765 154.104323 46.6051565 158.001494 46.6051565"></polygon>
                    <path d="M168.510057,51.8069999 C168.035671,52.0425769 166.987256,52.2926829 165.659408,52.2926829 C162.1535,52.2926829 160.023095,50.1745655 160.023095,46.9563969 C160.023095,43.4694421 162.545572,41.3658537 165.920429,41.3658537 C167.248277,41.3658537 168.198132,41.6315264 168.6097,41.8359699 L168.164557,43.3760415 C167.643598,43.1560313 166.920105,42.9681924 166.004908,42.9681924 C163.758614,42.9681924 162.135088,44.3173118 162.135088,46.8609207 C162.135088,49.1845194 163.561495,50.6758152 165.986496,50.6758152 C166.807466,50.6758152 167.658761,50.5191098 168.184052,50.2835328 L168.510057,51.8069999 Z" id="Fill-11"></path>
                    <polygon id="Fill-12" points="171.380127 42.1463415 171.380127 46.5237169 175.988147 46.5237169 175.988147 42.1463415 177.976905 42.1463415 177.976905 53.0731707 175.988147 53.0731707 175.988147 48.2585935 171.380127 48.2585935 171.380127 53.0731707 169.3903 53.0731707 169.3903 42.1463415"></polygon>
                    <path d="M192.808314,51.688086 C192.107333,51.9431503 190.739828,52.2926829 189.274337,52.2926829 C187.415822,52.2926829 186.016014,51.8308381 184.971541,50.8630632 C183.994906,49.9572175 183.425291,48.5443921 183.441443,46.9237366 C183.441443,43.5417727 185.91695,41.3658537 189.549991,41.3658537 C190.902421,41.3658537 191.961968,41.6366627 192.465899,41.873883 L192.025498,43.4462548 C191.423581,43.1922401 190.691373,42.9865092 189.533839,42.9865092 C187.186469,42.9865092 185.542232,44.3353061 185.542232,46.8282186 C185.542232,49.2581523 187.074484,50.7045664 189.352941,50.7045664 C190.072227,50.7045664 190.609538,50.6090485 190.870118,50.4809915 L190.870118,47.8127879 L188.930845,47.8127879 L188.930845,46.2740048 L192.808314,46.2740048 L192.808314,51.688086 Z" id="Fill-13"></path>
                    <path d="M196.366174,46.3873236 L197.561356,46.3873236 C198.919863,46.3873236 199.770011,45.6799994 199.770011,44.6025266 C199.770011,43.4112438 198.919863,42.8624027 197.608947,42.8624027 C196.971877,42.8624027 196.564109,42.9123941 196.366174,42.9602581 L196.366174,46.3873236 Z M194.369515,41.5913465 C195.122318,41.4626454 196.252604,41.3658537 197.414257,41.3658537 C198.999902,41.3658537 200.081516,41.6232558 200.818095,42.2359156 C201.422717,42.7337017 201.765588,43.4910172 201.765588,44.4068159 C201.765588,45.8087005 200.799707,46.7585359 199.770011,47.1276208 L199.770011,47.1765485 C200.556344,47.4637328 201.030091,48.2210483 201.308066,49.268739 C201.650937,50.6195687 201.945136,51.8757339 202.17552,52.2926829 L200.096658,52.2926829 C199.934416,51.971462 199.671584,51.086509 199.361161,49.7346157 C199.050738,48.3167764 198.526156,47.8668544 197.380727,47.8360087 L196.366174,47.8360087 L196.366174,52.2926829 L194.369515,52.2926829 L194.369515,41.5913465 Z" id="Fill-14"></path>
                    <path d="M205.040575,46.8775253 C205.040575,49.027814 206.146914,50.7546868 208.038501,50.7546868 C209.945983,50.7546868 211.021591,49.0112095 211.021591,46.7986537 C211.021591,44.8040325 210.010626,42.9048875 208.038501,42.9048875 C206.084391,42.9048875 205.040575,44.6929896 205.040575,46.8775253 M213.103926,46.7208198 C213.103926,50.2690038 210.909262,52.2926829 207.926171,52.2926829 C204.880558,52.2926829 202.95612,50.0168223 202.95612,46.9086588 C202.955061,43.6583188 205.040575,41.3658537 208.088307,41.3658537 C211.245191,41.3658537 213.103926,43.7050191 213.103926,46.7208198" id="Fill-15"></path>
                    <path d="M216.67338,42.1463415 L216.67338,48.4147965 C216.67338,50.5215036 217.572292,51.4936677 218.926595,51.4936677 C220.37802,51.4936677 221.244558,50.5215036 221.244558,48.4147965 L221.244558,42.1463415 L223.251732,42.1463415 L223.251732,48.2872132 C223.251732,51.6064893 221.506785,53.0731707 218.860769,53.0731707 C216.315111,53.0731707 214.665127,51.6876787 214.665127,48.3030293 L214.665127,42.1463415 L216.67338,42.1463415 Z" id="Fill-16"></path>
                    <path d="M227.484397,46.6447258 C227.71909,46.7085445 228.027572,46.7255629 228.415993,46.7255629 C229.842596,46.7255629 230.710651,46.0012203 230.710651,44.7301641 C230.710651,43.5229265 229.905113,42.8794211 228.58612,42.8794211 C228.059343,42.8794211 227.686294,42.9272851 227.484397,42.9762128 L227.484397,46.6447258 Z M225.593533,41.5913465 C226.276089,41.4626454 227.222033,41.3658537 228.51028,41.3658537 C229.905113,41.3658537 230.926896,41.6711199 231.594079,42.2518703 C232.214119,42.783693 232.618938,43.635673 232.618938,44.6503907 C232.618938,45.6799994 232.308406,46.5309158 231.718087,47.1106025 C230.958667,47.8987637 229.765732,48.269976 228.415993,48.269976 C228.059343,48.269976 227.733438,48.2540213 227.484397,48.2050936 L227.484397,52.2926829 L225.593533,52.2926829 L225.593533,41.5913465 Z" id="Fill-17"></path>
                    <path d="M245.789515,51.8059622 C245.315189,52.0425769 244.265823,52.2926829 242.938143,52.2926829 C239.432677,52.2926829 237.30254,50.1745655 237.30254,46.9563969 C237.30254,43.4694421 239.825783,41.3658537 243.200214,41.3658537 C244.527894,41.3658537 245.479795,41.6315264 245.889145,41.8359699 L245.446224,43.3760415 C244.919917,43.1560313 244.20193,42.9681924 243.282517,42.9681924 C241.037589,42.9681924 239.417516,44.3173118 239.417516,46.8609207 C239.417516,49.1845194 240.841578,50.6758152 243.266273,50.6758152 C244.086056,50.6758152 244.936161,50.5191098 245.461386,50.2835328 L245.789515,51.8059622 Z" id="Fill-18"></path>
                    <path d="M247.972975,46.8775253 C247.972975,49.027814 249.078486,50.7546868 250.971528,50.7546868 C252.878349,50.7546868 253.955242,49.0112095 253.953122,46.7986537 C253.953122,44.8040325 252.941945,42.9048875 250.971528,42.9048875 C249.01489,42.9048875 247.972975,44.6929896 247.972975,46.8775253 M256.036952,46.7208198 C256.036952,50.2690038 253.840769,52.2926829 250.859175,52.2926829 C247.811865,52.2926829 245.889145,50.0168223 245.889145,46.9086588 C245.889145,43.6583188 247.972975,41.3658537 251.019225,41.3658537 C254.178888,41.3658537 256.036952,43.7050191 256.036952,46.7208198" id="Fill-19"></path>
                    <path d="M259.595088,46.3873236 L260.790436,46.3873236 C262.145886,46.3873236 262.998315,45.6799994 262.998315,44.6025266 C262.998315,43.4112438 262.145886,42.8624027 260.838034,42.8624027 C260.198712,42.8624027 259.789805,42.9123941 259.595088,42.9602581 L259.595088,46.3873236 Z M257.598152,41.5913465 C258.352142,41.4626454 259.479339,41.3658537 260.642235,41.3658537 C262.229181,41.3658537 263.308781,41.6232558 264.045462,42.2359156 C264.65125,42.7337017 264.996332,43.4910172 264.996332,44.4068159 C264.996332,45.8087005 264.030318,46.7585359 262.998315,47.1276208 L262.998315,47.1765485 C263.783675,47.4637328 264.25857,48.2210483 264.535501,49.268739 C264.880584,50.6195687 265.175905,51.8757339 265.404157,52.2926829 L263.32609,52.2926829 C263.16058,51.9703984 262.898793,51.086509 262.589409,49.7346157 C262.277861,48.3167764 261.756451,47.8668544 260.610863,47.8360087 L259.595088,47.8360087 L259.595088,52.2926829 L257.598152,52.2926829 L257.598152,41.5913465 Z" id="Fill-20"></path>
                    <path d="M268.857799,46.6447258 C269.089484,46.7085445 269.401132,46.7255629 269.787616,46.7255629 C271.213611,46.7255629 272.083969,46.0012203 272.083969,44.7301641 C272.083969,43.5229265 271.27717,42.8794211 269.957793,42.8794211 C269.430862,42.8794211 269.05873,42.9272851 268.857799,42.9762128 L268.857799,46.6447258 Z M266.965358,41.5913465 C267.647088,41.4626454 268.593308,41.3658537 269.880906,41.3658537 C271.27717,41.3658537 272.300277,41.6711199 272.965605,42.2518703 C273.587875,42.783693 273.990762,43.635673 273.990762,44.6503907 C273.990762,45.6799994 273.679114,46.5309158 273.090674,47.1106025 C272.331032,47.8987637 271.136724,48.269976 269.787616,48.269976 C269.430862,48.269976 269.104862,48.2540213 268.857799,48.2050936 L268.857799,52.2926829 L266.965358,52.2926829 L266.965358,41.5913465 Z" id="Fill-21"></path>
                    <path d="M277.635982,46.8775253 C277.635982,49.027814 278.74421,50.7546868 280.633282,50.7546868 C282.541426,50.7546868 283.61575,49.0112095 283.61575,46.7986537 C283.61575,44.8040325 282.607114,42.9048875 280.633282,42.9048875 C278.677462,42.9048875 277.635982,44.6929896 277.635982,46.8775253 M285.699769,46.7208198 C285.699769,50.2690038 283.502384,52.2926829 280.522036,52.2926829 C277.47388,52.2926829 275.551963,50.0168223 275.551963,46.9086588 C275.551963,43.6583188 277.635982,41.3658537 280.68096,41.3658537 C283.839303,41.3658537 285.699769,43.7050191 285.699769,46.7208198" id="Fill-22"></path>
                    <path d="M289.256823,46.3873236 L290.452172,46.3873236 C291.811949,46.3873236 292.662215,45.6799994 292.662215,44.6025266 C292.662215,43.4112438 291.811949,42.8624027 290.500851,42.8624027 C289.863693,42.8624027 289.455868,42.9123941 289.256823,42.9602581 L289.256823,46.3873236 Z M287.26097,41.5913465 C288.013877,41.4626454 289.14432,41.3658537 290.306134,41.3658537 C291.894163,41.3658537 292.972681,41.6232558 293.70828,42.2359156 C294.314067,42.7337017 294.65915,43.4910172 294.65915,44.4068159 C294.65915,45.8087005 293.692053,46.7585359 292.662215,47.1276208 L292.662215,47.1765485 C293.447575,47.4637328 293.923551,48.2210483 294.201564,49.268739 C294.545565,50.6195687 294.838723,51.8757339 295.066975,52.2926829 L292.991071,52.2926829 C292.826643,51.9703984 292.564856,51.086509 292.253308,49.7346157 C291.942842,48.3167764 291.419268,47.8668544 290.272599,47.8360087 L289.256823,47.8360087 L289.256823,52.2926829 L287.26097,52.2926829 L287.26097,41.5913465 Z" id="Fill-23"></path>
                    <path d="M301.045797,48.4686218 L300.209159,45.7779022 C300.003137,45.1124554 299.831627,44.3677122 299.672665,43.7344126 L299.640246,43.7344126 C299.481285,44.3677122 299.324415,45.128529 299.13408,45.7779022 L298.311038,48.4686218 L301.045797,48.4686218 Z M297.996253,49.9763249 L297.076997,53.0731707 L295.066975,53.0731707 L298.485686,42.1463415 L300.969454,42.1463415 L304.43418,53.0731707 L302.344677,53.0731707 L301.378361,49.9763249 L297.996253,49.9763249 Z" id="Fill-24"></path>
                    <polygon id="Fill-25" points="307.37879 43.8169237 304.43418 43.8169237 304.43418 42.1463415 312.240185 42.1463415 312.240185 43.8169237 309.267193 43.8169237 309.267193 53.0731707 307.37879 53.0731707"></polygon>
                    <polygon id="Fill-26" points="313.801386 53.0731707 315.362587 53.0731707 315.362587 42.1463415 313.801386 42.1463415"></polygon>
                    <path d="M319.008024,46.8775253 C319.008024,49.027814 320.112129,50.7546868 322.005638,50.7546868 C323.912921,50.7546868 324.987357,49.0112095 324.987357,46.7986537 C324.987357,44.8040325 323.975437,42.9048875 322.005638,42.9048875 C320.049613,42.9048875 319.008024,44.6929896 319.008024,46.8775253 M327.071594,46.7208198 C327.071594,50.2690038 324.873979,52.2926829 321.89226,52.2926829 C318.845905,52.2926829 316.923788,50.0168223 316.923788,46.9086588 C316.923788,43.6583188 319.008024,41.3658537 322.05332,41.3658537 C325.210933,41.3658537 327.071594,43.7050191 327.071594,46.7208198" id="Fill-27"></path>
                    <path d="M328.632794,53.0731707 L328.632794,42.1463415 L330.88521,42.1463415 L333.682926,46.8323299 C334.407866,48.0474936 335.032887,49.3119497 335.533542,50.4960378 L335.563305,50.4960378 C335.434687,49.0354839 335.385791,47.6263655 335.385791,45.9568548 L335.385791,42.1463415 L337.2194,42.1463415 L337.2194,53.0731707 L335.176387,53.0731707 L332.346783,48.2585935 C331.654795,47.075577 330.933044,45.7296814 330.402626,44.4984441 L330.354793,44.5134461 C330.432389,45.9236361 330.451522,47.3649017 330.451522,49.1662158 L330.451522,53.0731707 L328.632794,53.0731707 Z" id="Fill-28"></path>
                    <path d="M87.5642589,24.1790825 L92.8681789,24.1790825 L92.8681789,19.644363 L87.5642589,19.644363 L87.5642589,24.1790825 Z M78.5449457,24.1790825 L83.743953,24.1790825 L83.743953,19.644363 L78.5449457,19.644363 L78.5449457,24.1790825 Z M74.9376443,28.8167468 L74.9376443,16.7577901 L83.6369208,16.7577901 L83.6369208,11.7073171 L86.1050186,11.7073171 C86.6083877,11.7165821 86.9824703,11.7258471 87.2304458,11.7330533 C87.7359343,11.7412889 87.9870889,11.7855551 87.9870889,11.8617343 C88.0146418,11.9235012 87.9923875,12.0326227 87.9203263,12.1973344 C87.6818883,12.7295592 87.5631992,13.3904649 87.5631992,14.1810812 L87.5631992,16.7577901 L96.7944573,16.7577901 L96.7944573,28.5079123 L92.8681789,28.5079123 L92.8681789,26.9616811 L87.5631992,26.9616811 L87.5631992,35.902439 L83.7428932,35.902439 L83.7428932,26.9616811 L78.5449457,26.9616811 L78.5449457,28.8167468 L74.9376443,28.8167468 Z" id="Fill-29"></path>
                    <path d="M114.34189,25.6602566 L115.909656,24.5991601 L113.817561,24.5991601 L113.817561,28.1039618 L115.909656,28.1039618 C115.447996,27.3070783 114.923666,26.4932173 114.34189,25.6602566 L114.34189,25.6602566 Z M106.183448,21.9421745 L110.471043,21.9421745 L110.471043,19.6067012 L105.765655,19.6067012 L105.765655,16.9497156 L118.940741,16.9497156 L118.940741,19.6067012 L113.817561,19.6067012 L113.817561,21.9421745 L118.522948,21.9421745 L118.522948,24.5991601 L117.269571,24.5991601 C117.503535,25.0055601 117.847169,25.5806744 118.301518,26.3255641 C118.536526,26.7054366 118.678576,26.9441833 118.731844,27.0418042 L117.164078,28.1039618 L119.150681,28.1039618 L119.150681,30.867057 L105.556759,30.867057 L105.556759,28.1039618 L110.471043,28.1039618 L110.471043,24.5991601 L106.183448,24.5991601 L106.183448,21.9421745 Z M104.824578,32.4587017 L119.882863,32.4587017 L119.882863,15.3559487 L104.824578,15.3559487 L104.824578,32.4587017 Z M101.47806,36.6829268 L101.47806,12.4878049 L123.334873,12.4878049 L123.334873,36.4717686 L119.882863,36.4717686 L119.882863,35.3003181 L104.823533,35.3003181 L104.823533,36.6829268 L101.47806,36.6829268 Z" id="Fill-30"></path>
                    <path d="M140.291048,27.1595762 L146.276029,27.1595762 L146.276029,24.8612378 L140.291048,24.8612378 L140.291048,27.1595762 Z M140.292079,22.4617474 L146.277059,22.4617474 L146.277059,20.163409 L140.292079,20.163409 L140.292079,22.4617474 Z M150.8181,15.6751836 L135.959229,15.6751836 L135.959229,12.7501204 L150.8181,12.7501204 L150.8181,15.6751836 Z M151.43649,35.0671536 L135.132649,35.0671536 L135.132649,32.0659657 L151.43649,32.0659657 L151.43649,35.0671536 Z M127.237875,24.4441165 C127.711974,21.9215753 128.036628,19.293711 128.219053,16.5615664 L130.901833,16.8222672 L130.901833,11.7073171 L132.759063,11.7073171 C133.162047,11.7073171 133.428985,11.7114883 133.558847,11.7187879 C133.731996,11.7187879 133.858766,11.7292159 133.946371,11.744858 C134.125704,11.7719709 134.212279,11.8460099 134.205064,11.9669751 C134.205064,12.0024304 134.189605,12.062913 134.163838,12.1494657 C134.053559,12.5061044 133.996873,13.0379341 133.996873,13.7418263 L133.996873,17.2393885 L135.441844,16.5094262 C135.793295,17.014143 136.344692,18.0225338 137.092944,19.537727 L137.092944,17.448992 L149.784359,17.448992 L149.784359,29.9761879 L137.092944,29.9761879 L137.092944,22.2521439 L135.338779,23.1395695 C135.139863,22.320969 134.693592,21.1895274 133.996873,19.7462876 L133.996873,35.902439 L130.901833,35.902439 L130.901833,20.6868962 L130.695704,20.6868962 C130.62665,21.1373872 130.522555,21.8423223 130.386509,22.7996157 C130.248402,23.7569091 130.145337,24.4618441 130.075253,24.9144208 L127.237875,24.4441165 Z" id="Fill-31"></path>
                    <path d="M164.424233,20.6648957 L164.424233,16.1851017 L157.257078,16.1851017 L157.257078,13.2682927 L175.747072,13.2682927 L175.747072,16.1851017 L168.05916,16.1851017 L168.05916,20.6648957 L177.199383,20.6648957 L177.199383,23.6878461 L168.371407,23.6878461 C169.88596,28.1832492 173.347647,30.9283588 178.757506,31.9158906 C177.6496,32.9762646 176.749167,34.2177035 176.056207,35.6412478 C171.66919,34.0782627 168.448172,31.4486601 166.398339,27.7493179 C164.891047,31.3008945 161.862979,34.0179078 157.309984,35.902439 C156.618061,34.8347808 155.699993,33.852452 154.558891,32.9585744 C159.828706,31.2061997 163.013417,28.1145694 164.114061,23.6878461 L155.596256,23.6878461 L155.596256,20.6648957 L164.424233,20.6648957 Z" id="Fill-32"></path>
                    <path d="M187.796473,22.4345839 L187.796473,23.4815032 L192.781298,23.4794136 L192.781298,22.4345839 L187.796473,22.4345839 Z M187.796473,20.3417899 L192.781298,20.3417899 L192.781298,19.4014432 L187.796473,19.4014432 L187.796473,20.3417899 Z M187.796473,17.2052111 L192.781298,17.2052111 L192.781298,16.2627747 L187.796473,16.2627747 L187.796473,17.2052111 Z M180.318707,19.1924772 C183.040495,16.1676952 184.841601,13.7186143 185.715666,11.8431449 C186.05046,11.2423678 186.249641,10.9362327 186.31321,10.9268293 C188.106899,11.4513338 189.11234,11.8515036 189.334829,12.1304731 C189.351781,12.2516734 189.259606,12.4000392 189.056187,12.5755706 C188.87078,12.7406537 188.733048,12.8890195 188.645112,13.0185784 C188.414146,13.3696412 188.203311,13.6475659 188.008368,13.8565318 L192.889364,13.8565318 C192.772822,13.2891893 192.525964,12.5045222 192.145613,11.5025304 C192.119126,11.4419303 192.823676,11.3374474 194.252907,11.1890815 C194.457385,11.1629608 194.602533,11.1451987 194.691529,11.1357952 C194.752978,11.1274366 194.838796,11.1201228 194.944743,11.1107193 C195.588903,11.0062363 195.894032,11.014595 195.859069,11.1357952 C195.947005,11.3719267 196.070964,12.1336076 196.229885,13.4250171 C196.256372,13.6256244 196.274383,13.769811 196.282859,13.8565318 L203.496816,13.8565318 L203.496816,16.2627747 L195.963957,16.2627747 L195.963957,17.2052111 L202.541171,17.2052111 L202.541171,19.4014432 L195.963957,19.4014432 L195.963957,20.3417899 L202.541171,20.3417899 L202.541171,22.4345839 L195.963957,22.4345839 L195.963957,23.4794136 L203.602763,23.4794136 L203.602763,25.7822183 L194.904483,25.7822183 L194.904483,27.1425866 L204.770304,27.1425866 L204.770304,29.6533124 L197.342332,29.6533124 C199.510016,31.2916054 202.160819,32.2162798 205.297921,32.4242009 C204.486365,33.3123061 203.814658,34.4041532 203.282802,35.6934731 C202.814515,35.5963039 202.131154,35.3580827 201.229542,34.9746302 C201.105583,34.9223887 201.01129,34.8826852 200.9509,34.8565645 C198.721767,33.9141281 196.706648,32.6342116 194.904483,31.0115911 L194.904483,35.902439 L191.615876,35.902439 L191.615876,31.3271297 C189.450312,32.9476606 186.709453,34.4208705 183.394359,35.7467594 C182.864622,34.9077611 182.067898,34.0008489 181.008424,33.0270676 C184.465487,32.3030006 187.187276,31.177719 189.174849,29.6533124 L181.326266,29.6533124 L181.326266,27.1425866 L191.615876,27.1425866 L191.615876,25.7822183 L187.796473,25.7822183 L187.796473,26.4091161 L184.509985,26.4091161 L184.509985,18.6679727 C183.324434,20.0805825 182.581743,20.9007738 182.281912,21.1275019 C181.88249,20.4901557 181.228795,19.8454958 180.318707,19.1924772 L180.318707,19.1924772 Z" id="Fill-33"></path>
                    <path d="M226.970983,15.2340308 L223.354232,15.2340308 L223.354232,18.1901257 L226.145476,18.1901257 L226.145476,20.935297 L223.354232,20.935297 L223.354232,29.2773272 C223.458453,30.7464105 222.735103,31.6259621 221.185214,31.9170367 L226.970983,31.9170367 L226.970983,15.2340308 Z M213.230427,18.1901257 L220.048079,18.1901257 L220.048079,15.2340308 L212.404921,15.2340308 L212.404921,31.9170367 L218.655037,31.9170367 C218.585901,30.8961662 218.326898,29.9449006 217.880093,29.0674582 C218.94706,29.0748405 219.563094,29.0252735 219.726131,28.9198117 C219.96656,28.8502069 220.073876,28.5812792 220.048079,28.1140833 L220.048079,23.5739518 C218.8707,25.8466541 217.148487,28.02655 214.883504,30.1199672 C214.385105,29.2678357 213.713349,28.4599981 212.8703,27.6932907 C214.951608,26.161985 216.692395,23.9082658 218.085437,20.935297 L213.230427,20.935297 L213.230427,18.1901257 Z M209.200924,35.7980318 L209.200924,12.4878049 L230.277136,12.4878049 L230.277136,35.902439 L226.868826,35.902439 L226.868826,34.6337333 L212.404921,34.6337333 L212.404921,35.7980318 L209.200924,35.7980318 Z" id="Fill-34"></path>
                    <path d="M243.807187,28.3407938 L251.301937,28.3407938 L251.301937,26.539892 L243.807187,26.539892 L243.807187,28.3407938 Z M243.807187,23.9983136 L251.301937,23.9983136 L251.301937,22.3021646 L243.807187,22.3021646 L243.807187,23.9983136 Z M234.7509,14.6742553 L242.973397,14.6742553 C243.156373,14.1896413 243.373657,13.4383837 243.62525,12.423657 C243.703223,12.1051661 243.763522,11.8670916 243.807187,11.7073171 C244.813556,11.7073171 245.993545,11.8141861 247.347154,12.0268661 C248.326493,12.1591297 248.56561,12.4945503 248.062425,13.0331279 C247.966778,13.1727983 247.900241,13.2807255 247.865933,13.3505607 C247.816031,13.4468486 247.737018,13.5939258 247.632015,13.7875598 C247.423048,14.1748277 247.259824,14.4710983 247.137147,14.6742553 L258.378753,14.6742553 L258.378753,17.6401354 L245.784578,17.6401354 C245.645267,17.8358856 245.437339,18.1353305 245.160795,18.5405863 C244.883212,18.9479584 244.675284,19.2484614 244.534933,19.4431535 L254.945868,19.4431535 L254.945868,33.5308195 C255.004088,34.7412964 254.670364,35.5264135 253.943657,35.8882868 C253.214871,36.3295184 251.726109,36.5940457 249.479452,36.6829268 C249.175877,35.4819729 248.812004,34.3042973 248.386792,33.147784 C248.360801,33.0779488 248.343127,33.0282176 248.33585,33.0017649 C249.063596,33.0462055 249.605248,33.0673677 249.961844,33.0673677 C250.325717,33.0599609 250.602261,33.0282176 250.794594,32.9763703 C251.158467,32.8970121 251.327928,32.6219037 251.301937,32.1552775 L251.301937,30.9892412 L243.807187,30.9892412 L243.807187,36.258625 L240.475147,36.258625 L240.475147,24.9506119 C239.417835,26.1145321 238.272154,27.1747575 237.041222,28.1281139 C236.626407,27.6784175 235.84148,26.9155207 234.686442,25.8373074 C234.460841,25.6352086 234.29138,25.4796665 234.180139,25.3738556 C237.484108,23.3973076 239.963645,20.8186955 241.620828,17.6401354 L234.7509,17.6401354 L234.7509,14.6742553 Z" id="Fill-35"></path>
                    <path d="M282.439212,24.0013985 L279.330471,24.0013985 C279.4174,24.8653842 279.623338,25.5905521 279.951391,26.178974 C280.831029,25.5750128 281.660992,24.847773 282.439212,24.0013985 L282.439212,24.0013985 Z M275.391766,21.3048101 L280.365338,21.3048101 L280.365338,19.3344254 L275.391766,19.3344254 L275.391766,21.3048101 Z M275.391766,16.9475872 L280.365338,16.9475872 L280.365338,15.2879888 L275.391766,15.2879888 L275.391766,16.9475872 Z M270.731758,32.609141 C270.731758,32.5842781 270.790745,32.5231568 270.911825,32.427849 C271.68694,31.8062766 272.077085,31.0717851 272.077085,30.2243747 L272.077085,12.5914003 L283.888027,12.5914003 L283.888027,24.0013985 L283.16155,24.0013985 C283.284699,24.1132816 283.509265,24.3163286 283.836283,24.6095036 C284.943591,25.569833 285.477583,26.0929898 285.442398,26.178974 C285.522082,26.2224841 285.071915,26.5032276 284.096035,27.0212047 C283.363349,27.4107234 282.395748,27.9587431 281.195302,28.6683717 C282.404027,30.2502736 284.165371,31.4260814 286.48037,32.1947594 C285.269575,33.2151741 284.372345,34.3122495 283.78661,35.4870214 C278.974476,32.7831813 276.455609,28.953259 276.221729,24.0013985 L275.289314,24.0013985 L275.289314,30.8459472 L277.049623,29.8099931 C277.222446,30.6822664 277.604312,31.6322363 278.190047,32.6609387 C275.609088,33.9569173 273.91294,34.9307141 273.100569,35.5792214 C272.790109,35.7946998 272.621426,35.902439 272.594519,35.902439 C272.344081,35.5833652 271.723161,34.4862898 270.731758,32.609141 L270.731758,32.609141 Z M266.067611,15.1843934 L266.067611,27.5267503 C267.346707,27.6220581 268.028684,27.104081 268.112508,25.9717832 C268.1746,24.8218742 267.63026,23.179887 266.483627,21.0447856 C267.258743,19.1096234 267.743061,17.154778 267.932442,15.1843934 L266.067611,15.1843934 Z M263.062356,35.384462 L263.062356,12.4878049 L271.45513,12.4878049 C271.264714,15.0476474 270.67898,17.8115729 269.693786,20.786833 C270.823861,22.9385097 271.379585,24.8052989 271.352678,26.3861648 C271.343364,27.9587431 271.060846,29.0278477 270.510296,29.5882989 C270.043571,30.1673972 268.924879,30.6387563 267.156291,31.0023762 C266.982433,30.1466781 266.62023,29.315843 266.067611,28.5140145 L266.067611,35.384462 L263.062356,35.384462 Z" id="Fill-36"></path>
                    <path d="M310.200316,26.7368726 C306.208652,24.026497 303.367305,20.0372531 301.667925,14.7712035 C301.40592,14.0327603 301.220116,13.5449339 301.106337,13.3128812 C302.124086,12.8828102 303.30885,12.6084723 304.658542,12.4878049 C305.294243,16.238808 308.082354,19.7845734 313.020785,23.1230384 C312.052097,24.1120986 311.111592,25.3167101 310.200316,26.7368726 M291.909017,31.590384 C291.917368,31.5718198 291.973735,31.5511929 292.079164,31.5254092 C294.379798,30.7941854 296.447656,27.3732127 298.285867,21.2645541 C298.72115,21.2985885 300.043702,21.6420265 302.256654,22.2969308 C302.263961,22.3072442 302.276487,22.3268398 302.294232,22.3619055 C302.399661,22.5331089 302.420538,22.6496509 302.362082,22.7105003 C300.724289,25.1620082 299.049962,27.9497348 297.344319,31.07368 C297.771251,31.1520622 300.035351,31.0489277 304.134531,30.7642763 C303.446637,29.7752161 302.576071,28.7418081 301.522831,27.6661148 L304.556245,25.8065991 C307.070868,28.9150741 309.023902,31.7275529 310.409085,34.2502237 L306.541638,35.902439 C306.323475,35.0928329 305.941427,34.2409416 305.390277,33.3467652 C298.4414,33.991356 294.520717,34.498778 293.632405,34.869031 C293.285849,34.9453505 293.093781,34.9793849 293.059334,34.9721655 C292.787934,34.5596273 292.405887,33.4323668 291.909017,31.590384 M288.04157,24.3627156 C292.082295,20.6106811 294.38293,17.0649157 294.938255,13.7254193 C296.829703,14.2864712 298.188789,14.6639436 299.014471,14.8629933 C299.276476,14.948595 299.311967,15.1208296 299.120943,15.378666 C298.980024,15.5942172 298.76186,15.9386865 298.46854,16.4110427 C295.679386,20.8179815 293.285849,24.259581 291.28271,26.7368726 C290.523834,25.970583 289.444498,25.1805725 288.04157,24.3627156" id="Fill-37"></path>
                    <path d="M322.269683,28.8593329 L328.037595,28.8593329 L328.037595,25.8909226 L322.269683,25.8909226 L322.269683,28.8593329 Z M328.037595,33.2091876 L328.037595,31.617984 L322.269683,31.617984 L322.269683,33.6350623 L318.914492,33.6350623 L318.914492,23.0273918 L331.60327,23.0273918 L331.60327,33.2091876 L328.037595,33.2091876 Z M334.329101,16.4517591 L318.183555,16.4517591 L318.183555,13.2682927 L337.996354,13.2682927 L337.996354,32.5735537 C338.040336,34.3671006 337.686386,35.4805194 336.936599,35.9148692 C336.309334,36.4265545 334.650588,36.6829268 331.967692,36.6829268 C331.959314,36.647967 331.950937,36.585463 331.941512,36.498593 C331.821086,35.3745804 331.620025,34.3332002 331.340426,33.3691554 C332.556212,33.3776305 333.354169,33.2716916 333.739534,33.0513385 C334.148985,32.8638265 334.346903,32.4580802 334.329101,31.829862 L334.329101,16.4517591 Z M333.069334,21.2243103 L316.923788,21.2243103 L316.923788,18.3607796 L333.069334,18.3607796 L333.069334,21.2243103 Z" id="Fill-38"></path>
                    <path d="M50.7034581,18.1872012 L36.7887254,18.1872012 L36.7887254,21.1530753 L50.7034581,21.1530753 L50.7034581,24.432305 L33.5102316,24.432305 L33.5102316,14.9058754 L50.7034581,14.9058754 L50.7034581,18.1872012 Z M50.7034581,30.8503308 L36.7887254,30.8503308 L36.7887254,33.8193489 L50.7034581,33.8193489 L50.7034581,37.0985786 L33.5102316,37.0985786 L33.5102316,27.5742451 L50.7034581,27.5742451 L50.7034581,30.8503308 Z M50.7034581,43.5176525 L36.7887254,43.5176525 L36.7887254,46.4835266 L50.7034581,46.4835266 L50.7034581,49.7648523 L33.5102316,49.7648523 L33.5102316,40.2373747 L50.7034581,40.2373747 L50.7034581,43.5176525 Z M30.4990063,24.432305 L13.3068279,24.432305 L13.3068279,21.1530753 L27.2194644,21.1530753 L27.2194644,18.1872012 L13.3068279,18.1872012 L13.3068279,14.9058754 L30.4990063,14.9058754 L30.4990063,24.432305 Z M30.4990063,37.0985786 L13.3068279,37.0985786 L13.3068279,33.8193489 L27.2194644,33.8193489 L27.2194644,30.8503308 L13.3068279,30.8503308 L13.3068279,27.5742451 L30.4990063,27.5742451 L30.4990063,37.0985786 Z M30.4990063,49.7648523 L13.3068279,49.7648523 L13.3068279,46.4835266 L27.2194644,46.4835266 L27.2194644,43.5176525 L13.3068279,43.5176525 L13.3068279,40.2373747 L30.4990063,40.2373747 L30.4990063,49.7648523 Z M32.0061911,0 C14.3287369,0 0,14.3294688 0,32.001048 C0,49.6747233 14.3287369,64 32.0061911,64 C49.680501,64 64.0092379,49.6747233 64.0092379,32.001048 C64.0092379,14.3294688 49.680501,0 32.0061911,0 L32.0061911,0 Z" id="Fill-39"></path>
                </g>
            </g>
        </g>
    </g>
</svg>